<svg xmlns="http://www.w3.org/2000/svg" width="535.896" height="825" viewBox="0 0 535.896 825"><defs><style>.a{fill:#d5cb9f;opacity:0.7;mix-blend-mode:multiply;isolation:isolate;}</style></defs><path class="a" d="M1507.559,987.457,1155.375,632.885,1343.293,443.7l164.266-165.376V220.385L1317.084,412.149l-80.88-81.436a154.509,154.509,0,0,0-219.216.009l-.85.885c-59.583,60.826-59.225,159.454.815,219.851l80.871,81.436L1016.969,714.3c-60.057,60.406-60.433,159.034-.832,219.851l.743.8a154.537,154.537,0,0,0,219.333.08l80.871-81.4,190.493,191.754Zm-300.114-81.373a114.216,114.216,0,0,1-160.814.868l-.805-.823a115.6,115.6,0,0,1-.08-162.862l80.854-81.409,161.7,162.808Zm-161.726-383.6a115.6,115.6,0,0,1,.008-162.755l.9-.9c44.564-43.92,116.7-43.518,160.8.868l80.872,81.409-17.049,17.175c-44.556,44.859-87.715,88.323-127.619,128.469l-17.049,17.165Z" transform="translate(1507.577 1045.385) rotate(180)"/></svg>