<svg xmlns="http://www.w3.org/2000/svg" width="21" height="21" viewBox="0 0 21 21"><defs><style>.a{fill:#e42313;}</style></defs><path class="a" d="M12.94,2.25A10.27,10.27,0,0,0,2.631,12.48a10.124,10.124,0,0,0,1.479,5.282L2.25,23.25l5.708-1.813A10.327,10.327,0,0,0,23.25,12.48,10.27,10.27,0,0,0,12.94,2.25Zm5.126,14.115a2.663,2.663,0,0,1-1.823,1.175c-.483.026-.5.375-3.133-.77a10.756,10.756,0,0,1-4.346-4.11,5.056,5.056,0,0,1-.973-2.74,2.921,2.921,0,0,1,1-2.143,1.01,1.01,0,0,1,.714-.3c.208,0,.342-.006.5,0s.384-.032.584.5.677,1.835.738,1.968a.478.478,0,0,1,0,.458,1.79,1.79,0,0,1-.279.426c-.138.148-.289.33-.412.443s-.28.261-.136.528a7.889,7.889,0,0,0,1.4,1.863,7.193,7.193,0,0,0,2.067,1.374c.259.141.413.125.573-.044s.686-.738.872-.992.359-.2.6-.109,1.507.776,1.766.916.431.212.493.323A2.165,2.165,0,0,1,18.067,16.365Z" transform="translate(-2.25 -2.25)"/></svg>