<svg xmlns="http://www.w3.org/2000/svg" width="25.304" height="21" viewBox="0 0 25.304 21"><defs><style>.a{fill:#e42313;}</style></defs><path class="a" d="M24.819,14.349a6.973,6.973,0,0,0-3.26-3.322,8.974,8.974,0,0,0-8.043.032,6.669,6.669,0,0,0-3.562,4.388,5.636,5.636,0,0,0,.717,4.176,7.7,7.7,0,0,0,5.241,3.424,9.651,9.651,0,0,0,4.574-.3c.888.344,1.678.9,2.539,1.314-.222-.745-.46-1.482-.713-2.216a7.166,7.166,0,0,0,2.366-2.614A5.667,5.667,0,0,0,24.819,14.349ZM14.356,4.37A10.664,10.664,0,0,0,5.62,3.69,8.89,8.89,0,0,0,1.038,7.3,6.762,6.762,0,0,0,.2,12.479a7.939,7.939,0,0,0,3.439,4.653c-.316.9-.617,1.791-.9,2.694,1.028-.538,2.056-1.1,3.085-1.646a11.451,11.451,0,0,0,3.859.546,6.493,6.493,0,0,1-.269-3.111,6.6,6.6,0,0,1,2.1-3.747,9.117,9.117,0,0,1,6.849-2.247,7.98,7.98,0,0,0-4.032-5.25h.028ZM16.183,14.9a1.038,1.038,0,1,1-1.328-1.34,1.049,1.049,0,0,1,1.328,1.34Zm5.055.1a1.061,1.061,0,0,1-1.662.285,1.579,1.579,0,0,1-.363-.77,1.167,1.167,0,0,1,.98-1.007A1.057,1.057,0,0,1,21.223,15h.016Zm-7.543-6.8a1.525,1.525,0,1,1,0-.013Zm-6.388.257A1.3,1.3,0,1,1,5.619,6.919,1.3,1.3,0,0,1,7.307,8.451Z" transform="translate(0.001 -3.06)"/></svg>